<svg width="24" height="24" viewBox="0 0 24 24" fill="none" xmlns="http://www.w3.org/2000/svg">
<path d="M14.2972 11.8125C13.9222 11.6715 13.9222 11.133 13.899 10.758C13.8052 9.42223 14.274 7.38298 13.7115 6.51598C13.3132 5.99998 11.391 6.04723 10.2195 6.11773C9.89098 6.16498 9.49272 6.23473 9.21147 6.37573C8.93022 6.51673 8.64897 6.75073 8.64897 6.96148C8.64897 7.26598 9.35247 7.21948 9.60972 7.61773C9.89097 8.03998 9.89097 8.95348 9.89097 9.70348C9.89097 10.5705 9.74997 11.7195 9.39897 11.766C8.85972 11.7892 8.55522 11.25 8.27397 10.8517C7.71147 10.0785 7.14897 9.11698 6.72672 8.17948C6.51597 7.68748 6.39822 7.14823 6.09372 6.93748C5.62497 6.60898 4.78122 6.58573 3.96072 6.60898C3.21072 6.63223 2.13222 6.53848 1.92147 6.98398C1.75722 7.47598 2.10897 7.94473 2.29647 8.34373C3.25722 10.4295 4.28847 12.258 5.55447 13.992C6.72672 15.609 7.82772 16.8982 9.98397 17.5777C10.5937 17.7652 13.2652 18.3045 13.8045 17.5777C13.992 17.2965 13.9455 16.6635 14.0392 16.1947C14.133 15.726 14.25 15.2572 14.6955 15.234C15.0705 15.2107 15.2812 15.5385 15.516 15.7732C15.774 16.0312 15.9847 16.242 16.1722 16.4767C16.6177 16.9222 17.0865 17.5312 17.649 17.766C18.4222 18.0945 19.6177 18.0007 20.7427 17.9535C21.657 17.9302 22.3132 17.7427 22.3837 17.2035C22.431 16.7812 21.9615 16.1722 21.6802 15.8205C20.9767 14.9535 20.649 14.6955 19.8517 13.8982C19.5 13.5465 19.0545 13.1715 19.0545 12.75C19.0312 12.492 19.242 12.258 19.4295 12C20.25 10.7812 21.0705 9.91423 21.8205 8.64823C22.0312 8.27323 22.524 7.40623 22.3365 6.98398C22.1257 6.51523 20.9535 6.65548 20.2267 6.65548C19.2892 6.65548 18.0705 6.58498 17.8357 6.77248C17.3902 7.07698 17.2027 7.56973 16.992 8.03848C16.5232 9.11698 15.8902 10.218 15.234 11.0385C14.9992 11.3197 14.5545 11.9055 14.2965 11.8117L14.2972 11.8125Z" fill="#2D2D2D"/>
</svg>
